<svg width="40" height="40" viewBox="0 0 40 40" fill="none" xmlns="http://www.w3.org/2000/svg">
<path d="M20.0002 3.33325C29.1668 3.33325 36.6668 10.8333 36.6668 19.9999C36.6668 29.1666 29.1668 36.6666 20.0002 36.6666C10.8335 36.6666 3.3335 29.1666 3.3335 19.9999C3.3335 10.8333 10.8335 3.33325 20.0002 3.33325ZM20.0002 6.66659C16.8335 6.66659 14.0002 7.66658 11.8335 9.49992L30.5002 28.1666C32.1668 25.8333 33.3335 22.9999 33.3335 19.9999C33.3335 12.6666 27.3335 6.66659 20.0002 6.66659M28.1668 30.4999L9.50016 11.8333C7.66683 13.9999 6.66683 16.8333 6.66683 19.9999C6.66683 27.3333 12.6668 33.3333 20.0002 33.3333C23.1668 33.3333 26.0002 32.3333 28.1668 30.4999V30.4999Z" fill="#FF0000"/>
</svg>
