<svg
    width="24"
    height="24"
    viewBox="0 0 24 24"
    fill="none"
    xmlns="http://www.w3.org/2000/svg"
>
    <path
        d="M20.0157 13.0406C19.9763 13.0406 19.9407 13.0219 19.9182 12.9881L19.8938 12.9506C19.8784 12.9269 19.8721 12.8984 19.8762 12.8704C19.8804 12.8424 19.8947 12.8169 19.9163 12.7987L22.5338 10.605C22.5601 10.5825 22.5882 10.5769 22.6088 10.5769C22.6482 10.5769 22.6857 10.5956 22.7063 10.6294L23.2613 11.4769C23.2801 11.505 23.2857 11.5406 23.2763 11.5744C23.2669 11.6062 23.2426 11.6344 23.2126 11.6475L20.0626 13.0312C20.0476 13.0369 20.0307 13.0406 20.0157 13.0406Z"
        fill="white"
        stroke="white"
        stroke-width="0.5"
    />
    <path
        d="M22.6875 17.7675C22.6819 17.7675 22.6744 17.7656 22.6669 17.76L19.9181 15.4556C19.9123 15.4506 19.9086 15.4437 19.9075 15.4361C19.9065 15.4285 19.9082 15.4208 19.9125 15.4144L20.0194 15.2531C20.022 15.2485 20.0258 15.2447 20.0305 15.2421C20.0351 15.2394 20.0403 15.2381 20.0456 15.2381L23.3625 16.6931C23.3737 16.6988 23.3775 16.7081 23.3794 16.7119C23.3812 16.7175 23.3831 16.7269 23.3756 16.7381L22.7137 17.7506C22.7062 17.7656 22.6931 17.7675 22.6875 17.7675Z"
        fill="white"
        stroke="white"
        stroke-width="0.5"
    />
    <path
        d="M20.0588 14.2163C20.0343 14.2142 20.0114 14.2031 19.9948 14.185C19.9781 14.167 19.9688 14.1433 19.9688 14.1188V14.0569C19.9688 14.01 20.0025 13.9688 20.0494 13.9613L23.5031 13.32H23.5069C23.5763 13.32 23.6175 13.3631 23.6194 13.4156L23.6306 14.3775C23.6308 14.3904 23.6284 14.4031 23.6235 14.415C23.6187 14.4269 23.6115 14.4377 23.6024 14.4468C23.5933 14.4559 23.5825 14.463 23.5706 14.4679C23.5587 14.4727 23.546 14.4752 23.5331 14.475L20.0588 14.2163Z"
        fill="white"
        stroke="white"
        stroke-width="0.5"
    />
    <path
        d="M11.8266 23C9.52845 23 8.35003 22.8102 8.00496 22.6545C8.11365 22.5381 8.29137 22.3466 8.53637 21.9903C8.70545 21.7433 8.79862 21.5768 8.83831 21.3459C8.84521 21.3047 8.90387 20.927 8.71063 20.4919C8.28274 19.5288 6.31065 18.5782 6.08807 18.4726C5.86205 18.3634 3.81749 17.3448 2.53555 15.6011C1.38128 14.0311 1.17596 12.2839 1.08796 11.5374C1.0017 10.7891 0.839511 9.39993 1.42441 7.75474C1.78156 6.75224 2.28364 6.04153 2.5528 5.70677C4.03661 3.85213 6.12603 3.3831 6.91107 3.20766C7.52358 3.06982 8.14471 3 8.75722 3C9.09366 3 9.43183 3.02148 9.76655 3.06266L9.78553 3.06445C10.5982 3.10204 11.2245 3.19334 11.5161 3.25958C11.6524 3.2918 11.8732 3.33119 12.1269 3.37773C12.5927 3.46187 13.1724 3.56749 13.6296 3.68922C13.9316 3.76978 14.13 3.89868 14.1524 3.95775C14.1593 3.99535 14.1093 4.14751 13.9023 4.36233L13.6969 4.57537L13.9437 4.77766C13.9523 4.7884 13.9626 4.80093 13.9885 4.82957C14.0489 4.90118 14.1835 5.0623 14.5389 5.47941C14.5493 5.49194 15.6414 6.78088 15.8933 7.51128C15.9158 7.57752 15.9296 7.64912 15.933 7.67777V7.93734C15.933 8.54959 15.9261 8.79842 15.9244 8.91658C15.9227 9.01504 15.9209 9.04368 15.9313 9.10813C16.0607 9.85643 16.6939 10.4382 17.089 10.6477C17.1511 10.6799 17.2546 10.7354 17.3754 10.8375C17.4841 10.9323 17.648 11.0738 17.6498 11.1507C17.6463 11.1579 17.6187 11.1901 17.5997 11.2152C17.5255 11.3065 17.4117 11.4443 17.3237 11.6985C17.2667 11.8632 17.1977 12.0601 17.284 12.2803C17.3254 12.386 17.3806 12.4486 17.4255 12.5005C17.4565 12.5363 17.4807 12.5632 17.5083 12.6133L17.5203 12.633C17.5583 12.6903 17.5756 12.7404 17.5756 12.7852C17.5704 12.9552 17.2046 13.1701 16.7819 13.4171C16.6887 13.4708 16.5921 13.5281 16.4903 13.589C15.324 14.2889 14.7667 14.647 14.865 15.1106C14.9306 15.4239 15.2705 15.5224 15.5431 15.6029C15.7225 15.6549 15.9037 15.6799 16.0952 15.6799C16.2764 15.6799 16.4731 15.6584 16.7508 15.6083C17.089 15.5474 17.3668 15.4776 17.5911 15.4221C17.755 15.381 17.9017 15.3434 18 15.3308C17.9983 15.363 17.9914 15.4042 17.981 15.4597C17.9689 15.5224 17.95 15.5707 17.9206 15.6423C17.8689 15.7712 17.8137 15.8589 17.7878 15.9001L17.7774 15.918C17.6135 16.1937 17.6912 16.5177 17.7602 16.8042C17.7774 16.8758 17.7947 16.9474 17.8085 17.0172C17.9086 17.5471 17.862 17.9642 17.6791 18.1933C17.5031 18.4153 17.1701 18.5102 16.9044 18.5872C16.8233 18.6105 16.7612 18.623 16.6922 18.6373C16.599 18.657 16.492 18.6785 16.3247 18.725C16.0986 18.7877 15.8761 18.8647 15.6639 18.9524C15.5638 18.9864 15.2981 19.0777 15.0634 19.3122C14.6166 19.758 14.6114 20.3989 14.6097 20.6728C14.6079 20.9055 14.6355 21.072 14.6562 21.1937C14.6907 21.396 14.7391 21.5804 14.8046 21.7558C14.846 21.865 14.8702 21.9241 14.8926 21.976C14.9116 22.0208 14.9288 22.0602 14.9565 22.1353C15.0168 22.3054 15.0634 22.497 15.0703 22.5739C14.8754 22.7852 13.5572 22.9803 12.2045 22.9964C12.0803 23 11.9543 23 11.8266 23Z"
        fill="white"
        stroke="white"
    />
</svg>