<svg width="40" height="40" viewBox="0 0 40 40" fill="none" xmlns="http://www.w3.org/2000/svg">
<path d="M17.6668 27.6666L29.4168 15.9166L27.0835 13.5833L17.6668 22.9999L12.9168 18.2499L10.5835 20.5833L17.6668 27.6666ZM20.0002 36.6666C17.6946 36.6666 15.5279 36.2288 13.5002 35.3533C11.4724 34.4788 9.7085 33.2916 8.2085 31.7916C6.7085 30.2916 5.52127 28.5277 4.64683 26.4999C3.77127 24.4721 3.3335 22.3055 3.3335 19.9999C3.3335 17.6944 3.77127 15.5277 4.64683 13.4999C5.52127 11.4721 6.7085 9.70825 8.2085 8.20825C9.7085 6.70825 11.4724 5.52047 13.5002 4.64492C15.5279 3.77047 17.6946 3.33325 20.0002 3.33325C22.3057 3.33325 24.4724 3.77047 26.5002 4.64492C28.5279 5.52047 30.2918 6.70825 31.7918 8.20825C33.2918 9.70825 34.4791 11.4721 35.3535 13.4999C36.2291 15.5277 36.6668 17.6944 36.6668 19.9999C36.6668 22.3055 36.2291 24.4721 35.3535 26.4999C34.4791 28.5277 33.2918 30.2916 31.7918 31.7916C30.2918 33.2916 28.5279 34.4788 26.5002 35.3533C24.4724 36.2288 22.3057 36.6666 20.0002 36.6666ZM20.0002 33.3333C23.7224 33.3333 26.8752 32.0416 29.4585 29.4583C32.0418 26.8749 33.3335 23.7221 33.3335 19.9999C33.3335 16.2777 32.0418 13.1249 29.4585 10.5416C26.8752 7.95825 23.7224 6.66659 20.0002 6.66659C16.2779 6.66659 13.1252 7.95825 10.5418 10.5416C7.9585 13.1249 6.66683 16.2777 6.66683 19.9999C6.66683 23.7221 7.9585 26.8749 10.5418 29.4583C13.1252 32.0416 16.2779 33.3333 20.0002 33.3333Z" fill="#00FF19"/>
</svg>
