<svg
    width="24"
    height="24"
    viewBox="0 0 24 24"
    fill="none"
    xmlns="http://www.w3.org/2000/svg"
>
    <g clip-path="url(#clip0_30_9)">
        <path
            d="M21.8672 3.92344L12.8672 0.173436C12.593 0.0597073 12.2991 0.0011673 12.0023 0.0011673C11.7055 0.0011673 11.4117 0.0597073 11.1375 0.173436L2.1375 3.92344C1.29844 4.27031 0.75 5.09062 0.75 6C0.75 15.3047 6.11719 21.7359 11.1328 23.8266C11.6859 24.0562 12.3094 24.0562 12.8625 23.8266C16.8797 22.1531 23.25 16.3734 23.25 6C23.25 5.09062 22.7016 4.27031 21.8672 3.92344ZM12.0047 20.9203L12 3.06094L20.2453 6.49687C20.0906 13.5937 16.3969 18.7359 12.0047 20.9203Z"
            fill="white"
        />
    </g>
    <defs>
        <clipPath id="clip0_30_9">
            <rect
                width="24"
                height="24"
                fill="white"
            />
        </clipPath>
    </defs>
</svg>