<svg width="24" height="24" viewBox="0 0 24 24" fill="none" xmlns="http://www.w3.org/2000/svg">
<g clip-path="url(#clip0_528_26)">
<path d="M0.939375 14.8734C0.84375 14.8734 0.75 14.8031 0.75 14.6859V7.05469C0.75 6.94448 0.839531 6.86663 0.937547 6.86663C0.969797 6.86663 1.00298 6.87506 1.0342 6.89358L4.62577 9.00764L1.09702 14.7405C1.05891 14.85 0.998906 14.8734 0.939375 14.8734V14.8734ZM10.8469 18.9938L1.0875 17.9597C0.887344 17.9371 0.753609 17.7667 0.753609 17.5849C0.753609 17.5192 0.771094 17.4521 0.809156 17.3899L5.75156 10.0828L10.8469 18.9938V18.9938ZM1.45781 19.6922C1.45781 19.5966 1.5285 19.5015 1.64203 19.5015C1.64977 19.5015 1.65773 19.502 1.66589 19.5029L11.2096 20.5487V23.6265C11.2078 23.8406 11.0719 24 10.875 24C10.8205 23.9999 10.7667 23.9878 10.7174 23.9646L1.60547 19.8563C1.53234 19.8188 1.45781 19.7531 1.45781 19.6922ZM1.59094 5.48906C1.53052 5.45325 1.50009 5.39119 1.50009 5.32889C1.50009 5.26884 1.52831 5.20856 1.58508 5.1712L8.65383 0.549797C8.67656 0.514688 8.77969 0.49875 8.84063 0.49875C9.04313 0.49875 9.21577 0.673172 9.21577 0.874781C9.21577 0.939422 9.198 1.00687 9.15778 1.07231L5.41406 7.77188L1.59094 5.48906V5.48906ZM6.88125 8.20781L11.362 0.314062C11.5078 0.118594 11.7516 0 11.9578 0C12.1641 0 12.45 0.118594 12.5963 0.357375L17.077 8.25113H6.88125V8.20781ZM16.7062 9.70781L12 17.9437L7.29375 9.70781H16.7062V9.70781ZM22.3172 19.4578C22.4307 19.4578 22.5014 19.5529 22.5014 19.6485C22.5014 19.7131 22.4691 19.7779 22.3958 19.8137L13.2833 23.9227C13.2342 23.9456 13.1806 23.9575 13.1263 23.9576C12.9294 23.9576 12.7516 23.7997 12.7516 23.5829V20.5037L22.2953 19.4593C22.2984 19.5 22.3078 19.4578 22.3172 19.4578V19.4578ZM23.1937 17.3859C23.2312 17.4516 23.25 17.5172 23.25 17.5828C23.25 17.7643 23.1168 17.9343 22.9159 17.9569L13.1565 18.9909L18.2471 10.08L23.1937 17.3859V17.3859ZM14.8406 1.07203C14.8004 1.00664 14.7826 0.939188 14.7826 0.8745C14.7826 0.672891 14.9553 0.498469 15.1578 0.498469C15.2191 0.498469 15.2832 0.514453 15.346 0.5505L22.4147 5.17191C22.4409 5.18892 22.4624 5.21221 22.4772 5.23967C22.4921 5.26713 22.4998 5.29786 22.4997 5.32908C22.4998 5.36145 22.4915 5.3933 22.4756 5.42148C22.4597 5.44966 22.4367 5.47321 22.4089 5.48981L18.5859 7.77188L14.8406 1.07203ZM23.0203 6.86719C23.1183 6.86719 23.2079 6.94505 23.2079 7.05525V14.6865C23.2079 14.8029 23.1134 14.8743 23.0179 14.8743C22.9583 14.8743 22.8984 14.8465 22.8607 14.7847L19.332 9.05184L22.9235 6.93778C22.9969 6.87656 23.0297 6.86719 23.0203 6.86719V6.86719Z" fill="white"/>
</g>
<defs>
<clipPath id="clip0_528_26">
<rect width="24" height="24" fill="white"/>
</clipPath>
</defs>
</svg>
