<svg width="67" height="34" viewBox="0 0 67 34" fill="none" xmlns="http://www.w3.org/2000/svg">
<path d="M62.3495 3.60534L33.497 25.1241L4.6446 3.60534C4.1291 3.22009 3.43709 3.00442 2.71648 3.00442C1.99588 3.00442 1.30387 3.22009 0.78837 3.60534C0.538767 3.79245 0.340472 4.01579 0.2051 4.26228C0.0697277 4.50876 0 4.77344 0 5.0408C0 5.30816 0.0697277 5.57284 0.2051 5.81932C0.340472 6.06581 0.538767 6.28915 0.78837 6.47626L31.4823 29.373C32.0214 29.775 32.7443 30 33.497 30C34.2498 30 34.9727 29.775 35.5118 29.373L66.2057 6.48068C66.4571 6.29343 66.6569 6.06954 66.7933 5.82224C66.9297 5.57493 67 5.30923 67 5.0408C67 4.77237 66.9297 4.50667 66.7933 4.25936C66.6569 4.01206 66.4571 3.78817 66.2057 3.60092C65.6902 3.21567 64.9982 3 64.2776 3C63.557 3 62.865 3.21567 62.3495 3.60092V3.60534Z" fill="white"/>
</svg>
