<svg width="24" height="24" viewBox="0 0 24 24" fill="none" xmlns="http://www.w3.org/2000/svg">
<path d="M21.3333 5H2.66667C2.35725 5 2.0605 5.12292 1.84171 5.34171C1.62292 5.5605 1.5 5.85725 1.5 6.16667V17.8333C1.5 18.1428 1.62292 18.4395 1.84171 18.6583C2.0605 18.8771 2.35725 19 2.66667 19H21.3333C21.6428 19 21.9395 18.8771 22.1583 18.6583C22.3771 18.4395 22.5 18.1428 22.5 17.8333V6.16667C22.5 5.85725 22.3771 5.5605 22.1583 5.34171C21.9395 5.12292 21.6428 5 21.3333 5Z" stroke="white" stroke-width="2" stroke-linejoin="round"/>
<path d="M1.5 7.33334L10.705 13.47C11.0884 13.7258 11.5391 13.8624 12 13.8624C12.4609 13.8624 12.9116 13.7258 13.295 13.47L22.5 7.33334" stroke="white" stroke-width="2" stroke-linecap="round"/>
</svg>
