<svg width="63" height="63" viewBox="0 0 63 63" fill="none" xmlns="http://www.w3.org/2000/svg">
    <style>
        rect, path {
            fill: black;
        }
        @media (prefers-color-scheme: dark) {
            fill: white;
        }
    </style>
    <g clip-path="url(#clip0_218_56)">
        <path d="M41.4176 19.2568C40.2732 18.2232 39.6949 16.7959 40.2486 15.4178L44.0016 6.05145C44.6291 4.46291 46.4871 3.7357 47.9514 4.63025C50.56 6.22986 52.9102 8.19738 54.9404 10.4614C56.0725 11.7153 55.7279 13.6459 54.3252 14.5811L46.0072 20.1182C44.7398 20.9672 43.0418 20.6842 41.8975 19.6752C41.7375 19.5275 41.5775 19.3922 41.4176 19.2568V19.2568ZM36.6311 13.8551C36.0773 15.1471 34.5639 15.9715 33.0627 15.8238C32.5582 15.7746 32.0291 15.75 31.5 15.75C30.9709 15.75 30.4418 15.7746 29.9373 15.8238C28.4361 15.9715 26.9227 15.1471 26.3689 13.8551L22.5299 4.53059C22.0008 2.95559 22.8252 1.1607 24.3756 0.784301C26.7381 0.271072 29.0883 0 31.5 0C33.9117 0 36.2619 0.271072 38.5137 0.784301C40.1748 1.1607 40.9992 2.95559 40.3594 4.53059L36.6311 13.8551V13.8551ZM15.0486 4.63025C16.5129 3.7357 18.3709 4.46291 18.9984 6.05145L22.7514 15.4178C23.3051 16.7959 22.7268 18.2232 21.5824 19.2568C21.4225 19.3922 21.2625 19.5275 21.1025 19.6752C19.9582 20.6842 18.2602 20.9672 16.9928 20.1182L8.67727 14.5811C7.27576 13.6459 6.93 11.7153 8.05465 10.4614C10.0886 8.19738 12.44 6.22986 15.0486 4.63025V4.63025ZM46.6963 27.3287C46.3025 25.926 46.7209 24.3756 47.9268 23.5758L56.3678 17.9402C57.7951 16.9928 59.7516 17.4604 60.4406 19.0354C61.7203 22.0008 62.557 25.2 62.8646 28.5469C63.0123 30.1711 61.6834 31.3893 60.0469 31.3893H50.2031C48.5666 31.3893 47.2746 30.1711 46.9793 28.5592C46.8932 28.1408 46.807 27.7348 46.6963 27.3287V27.3287ZM15.0732 23.5758C16.2791 24.3756 16.6975 25.926 16.3037 27.3287C16.193 27.7348 16.1068 28.1408 16.0207 28.5592C15.7254 30.1711 14.4334 31.5 12.7969 31.5H2.95312C1.32275 31.5 -0.0145195 30.1711 0.136213 28.5469C0.447398 25.2 1.28338 22.0008 2.56184 19.0354C3.24352 17.4604 5.19996 16.9928 6.63346 17.9402L15.0732 23.5758V23.5758ZM12.7969 35.4375C14.4334 35.4375 15.75 36.7541 15.75 38.3906V44.2969C15.75 45.9334 14.4334 47.25 12.7969 47.25H2.95312C1.32275 47.25 0 45.9334 0 44.2969V38.3906C0 36.7541 1.32275 35.4375 2.95312 35.4375H12.7969ZM60.0469 35.4375C61.6834 35.4375 63 36.7541 63 38.3906V44.2969C63 45.9334 61.6834 47.25 60.0469 47.25H50.2031C48.5666 47.25 47.25 45.9334 47.25 44.2969V38.3906C47.25 36.7541 48.5666 35.4375 50.2031 35.4375H60.0469ZM12.7969 51.1875C14.4334 51.1875 15.75 52.5041 15.75 54.1406V60.0469C15.75 61.6834 14.4334 63 12.7969 63H2.95312C1.32275 63 0 61.6834 0 60.0469V54.1406C0 52.5041 1.32275 51.1875 2.95312 51.1875H12.7969ZM60.0469 51.1875C61.6834 51.1875 63 52.5041 63 54.1406V60.0469C63 61.6834 61.6834 63 60.0469 63H50.2031C48.5666 63 47.25 61.6834 47.25 60.0469V54.1406C47.25 52.5041 48.5666 51.1875 50.2031 51.1875H60.0469ZM33.4688 57.0938C33.4688 58.1766 32.5828 59.0625 31.5 59.0625C30.4172 59.0625 29.5312 58.1766 29.5312 57.0938V23.625C29.5312 22.5422 30.4172 21.6562 31.5 21.6562C32.5828 21.6562 33.4688 22.5422 33.4688 23.625V57.0938ZM25.5938 57.0938C25.5938 58.1766 24.7078 59.0625 23.625 59.0625C22.5422 59.0625 21.6562 58.1766 21.6562 57.0938V27.5625C21.6562 26.4797 22.5422 25.5938 23.625 25.5938C24.7078 25.5938 25.5938 26.4797 25.5938 27.5625V57.0938ZM41.3438 57.0938C41.3438 58.1766 40.4578 59.0625 39.375 59.0625C38.2922 59.0625 37.4062 58.1766 37.4062 57.0938V27.5625C37.4062 26.4797 38.2922 25.5938 39.375 25.5938C40.4578 25.5938 41.3438 26.4797 41.3438 27.5625V57.0938Z"/>
    </g>
    <defs>
        <clipPath id="clip0_218_56">
            <rect width="63" height="63" fill="white"/>
        </clipPath>
    </defs>
</svg>
