<svg
    width="24"
    height="24"
    viewBox="0 0 24 24"
    fill="none"
    xmlns="http://www.w3.org/2000/svg"
>
    <path
        d="M20.6504 8.1115C20.8052 7.56828 20.8388 6.99768 20.7487 6.44006C20.6586 5.88243 20.4471 5.35141 20.1292 4.88455C19.8112 4.41769 19.3946 4.0264 18.9087 3.73835C18.4228 3.45029 17.8796 3.27252 17.3174 3.2176C17.0918 2.57038 16.6706 2.00928 16.1121 1.61198C15.5536 1.21468 14.8854 1.00082 14.2 1C13.3855 1.00276 12.6013 1.30862 12 1.858C11.3987 1.30862 10.6145 1.00276 9.8 1C8.3689 1 7.149 1.9141 6.6925 3.2165C6.12934 3.27005 5.58486 3.44686 5.09768 3.73441C4.61051 4.02196 4.19258 4.41319 3.87355 4.88035C3.55452 5.34751 3.34219 5.87915 3.25164 6.43756C3.1611 6.99597 3.19454 7.56746 3.3496 8.1115C2.64344 8.48721 2.05215 9.04707 1.63848 9.73168C1.2248 10.4163 1.00418 11.2001 1 12C1 13.1825 1.4708 14.2946 2.2892 15.1152C2.16398 15.532 2.10024 15.9648 2.1 16.4C2.1 18.5527 3.6532 20.349 5.7366 20.7274C6.04245 21.4034 6.53634 21.9771 7.15931 22.38C7.78229 22.783 8.50806 22.9982 9.25 23C10.3269 23 11.3004 22.5523 12 21.8351C12.3571 22.2034 12.7845 22.4964 13.2569 22.6965C13.7292 22.8966 14.237 22.9998 14.75 23C15.4906 22.9986 16.2152 22.7843 16.8374 22.3825C17.4596 21.9807 17.953 21.4085 18.259 20.734C18.8728 20.6258 19.4566 20.3886 19.9719 20.0382C20.4873 19.6877 20.9224 19.232 21.2486 18.7009C21.5748 18.1699 21.7847 17.5758 21.8644 16.9577C21.944 16.3396 21.8917 15.7116 21.7108 15.1152C22.1198 14.7061 22.4441 14.2204 22.6654 13.6859C22.8866 13.1514 23.0003 12.5785 23 12C22.9958 11.2001 22.7752 10.4163 22.3615 9.73168C21.9478 9.04707 21.3566 8.48721 20.6504 8.1115ZM9.25 20.8C8.4679 20.8 7.787 20.2456 7.633 19.4822L7.3998 18.6H6.5C5.2867 18.6 4.3 17.6133 4.3 16.4C4.3 16.0128 4.3935 15.6498 4.5783 15.3209L5.0799 14.4233L4.2175 13.8623C3.90596 13.6615 3.64965 13.3858 3.47193 13.0605C3.2942 12.7353 3.20072 12.3707 3.2 12C3.2 10.9253 3.9953 9.9936 5.0502 9.8308L6.9125 9.5448L5.7476 8.0642C5.54015 7.79676 5.41984 7.47206 5.40295 7.13401C5.38606 6.79597 5.47339 6.46089 5.65315 6.1741C5.8329 5.88731 6.0964 5.66264 6.408 5.53049C6.7196 5.39834 7.06428 5.36508 7.3954 5.4352L8.7 5.6277V4.3C8.7 4.00826 8.81589 3.72847 9.02218 3.52218C9.22847 3.31589 9.50826 3.2 9.8 3.2C10.0917 3.2 10.3715 3.31589 10.5778 3.52218C10.7841 3.72847 10.9 4.00826 10.9 4.3V19.15C10.9 20.0597 10.1597 20.8 9.25 20.8ZM19.7825 13.8612L18.9201 14.4222L19.4217 15.3198C19.6065 15.6498 19.7 16.0128 19.7 16.4C19.7 17.6133 18.7133 18.6 17.445 18.6H16.5452L16.367 19.4822C16.2901 19.8543 16.0873 20.1885 15.7928 20.4285C15.4982 20.6686 15.13 20.7998 14.75 20.8C13.8403 20.8 13.1 20.0597 13.1 19.15V4.3C13.1 3.6928 13.5928 3.2 14.2 3.2C14.8072 3.2 15.3 3.6928 15.3 4.355V5.6827L16.6046 5.4352C16.9357 5.36508 17.2804 5.39834 17.592 5.53049C17.9036 5.66264 18.1671 5.88731 18.3469 6.1741C18.5266 6.46089 18.6139 6.79597 18.597 7.13401C18.5802 7.47206 18.4599 7.79676 18.2524 8.0642L17.0875 9.5459L18.9498 9.8319C19.4651 9.91534 19.9341 10.1791 20.273 10.5763C20.6118 10.9734 20.7986 11.478 20.8 12C20.8 12.7513 20.4194 13.4465 19.7825 13.8612Z"
        fill="white"
    />
</svg>