<svg width="32" height="32" viewBox="0 0 32 32" fill="none" xmlns="http://www.w3.org/2000/svg">
<path d="M26.6666 16.0002H16.6666M24.6666 20.0002L28.6666 16.0002L24.6666 12.0002M18.6666 9.3335V8.00016C18.6666 7.29292 18.3857 6.61464 17.8856 6.11454C17.3855 5.61445 16.7072 5.3335 16 5.3335H9.33329C8.62605 5.3335 7.94777 5.61445 7.44767 6.11454C6.94758 6.61464 6.66663 7.29292 6.66663 8.00016V24.0002C6.66663 24.7074 6.94758 25.3857 7.44767 25.8858C7.94777 26.3859 8.62605 26.6668 9.33329 26.6668H16C16.7072 26.6668 17.3855 26.3859 17.8856 25.8858C18.3857 25.3857 18.6666 24.7074 18.6666 24.0002V22.6668" stroke="white" stroke-width="2" stroke-linecap="round" stroke-linejoin="round"/>
</svg>
