<svg width="24" height="24" viewBox="0 0 24 24" fill="none" xmlns="http://www.w3.org/2000/svg">
<path d="M18 9.75C18.7956 9.75 19.5587 9.43393 20.1213 8.87132C20.6839 8.30871 21 7.54565 21 6.75V6C21 5.20435 20.6839 4.44129 20.1213 3.87868C19.5587 3.31607 18.7956 3 18 3H17.25C16.4544 3 15.6913 3.31607 15.1287 3.87868C14.5661 4.44129 14.25 5.20435 14.25 6V8.25H9.75V6C9.75 5.20435 9.43393 4.44129 8.87132 3.87868C8.30871 3.31607 7.54565 3 6.75 3H6C5.20435 3 4.44129 3.31607 3.87868 3.87868C3.31607 4.44129 3 5.20435 3 6V6.75C3 7.54565 3.31607 8.30871 3.87868 8.87132C4.44129 9.43393 5.20435 9.75 6 9.75H8.25V14.25H6C5.20435 14.25 4.44129 14.5661 3.87868 15.1287C3.31607 15.6913 3 16.4544 3 17.25V18C3 18.7956 3.31607 19.5587 3.87868 20.1213C4.44129 20.6839 5.20435 21 6 21H6.75C7.54565 21 8.30871 20.6839 8.87132 20.1213C9.43393 19.5587 9.75 18.7956 9.75 18V15.75H14.25V18C14.25 18.7956 14.5661 19.5587 15.1287 20.1213C15.6913 20.6839 16.4544 21 17.25 21H18C18.7956 21 19.5587 20.6839 20.1213 20.1213C20.6839 19.5587 21 18.7956 21 18V17.25C21 16.4544 20.6839 15.6913 20.1213 15.1287C19.5587 14.5661 18.7956 14.25 18 14.25H15.75V9.75H18ZM15.75 6C15.75 5.60218 15.908 5.22064 16.1893 4.93934C16.4706 4.65804 16.8522 4.5 17.25 4.5H18C18.3978 4.5 18.7794 4.65804 19.0607 4.93934C19.342 5.22064 19.5 5.60218 19.5 6V6.75C19.5 7.14782 19.342 7.52936 19.0607 7.81066C18.7794 8.09196 18.3978 8.25 18 8.25H15.75V6ZM6 8.25C5.60218 8.25 5.22064 8.09196 4.93934 7.81066C4.65804 7.52936 4.5 7.14782 4.5 6.75V6C4.5 5.60218 4.65804 5.22064 4.93934 4.93934C5.22064 4.65804 5.60218 4.5 6 4.5H6.75C7.14782 4.5 7.52936 4.65804 7.81066 4.93934C8.09196 5.22064 8.25 5.60218 8.25 6V8.25H6ZM8.25 18C8.25 18.3978 8.09196 18.7794 7.81066 19.0607C7.52936 19.342 7.14782 19.5 6.75 19.5H6C5.60218 19.5 5.22064 19.342 4.93934 19.0607C4.65804 18.7794 4.5 18.3978 4.5 18V17.25C4.5 16.8522 4.65804 16.4706 4.93934 16.1893C5.22064 15.908 5.60218 15.75 6 15.75H8.25V18ZM14.25 14.25H9.75V9.75H14.25V14.25ZM15.75 15.75H18C18.3978 15.75 18.7794 15.908 19.0607 16.1893C19.342 16.4706 19.5 16.8522 19.5 17.25V18C19.5 18.3978 19.342 18.7794 19.0607 19.0607C18.7794 19.342 18.3978 19.5 18 19.5H17.25C16.8522 19.5 16.4706 19.342 16.1893 19.0607C15.908 18.7794 15.75 18.3978 15.75 18V15.75Z" fill="white"/>
</svg>
