<svg width="40" height="40" viewBox="0 0 40 40" fill="none" xmlns="http://www.w3.org/2000/svg">
<path d="M6.66683 33.3334C5.75016 33.3334 4.96572 33.0073 4.3135 32.3551C3.66016 31.7017 3.3335 30.9167 3.3335 30.0001V10.0001C3.3335 9.08341 3.66016 8.29897 4.3135 7.64675C4.96572 6.99341 5.75016 6.66675 6.66683 6.66675H33.3335C34.2502 6.66675 35.0352 6.99341 35.6885 7.64675C36.3407 8.29897 36.6668 9.08341 36.6668 10.0001V30.0001C36.6668 30.9167 36.3407 31.7017 35.6885 32.3551C35.0352 33.0073 34.2502 33.3334 33.3335 33.3334H6.66683ZM33.3335 13.3334L20.8752 21.1251C20.7363 21.2084 20.5902 21.2706 20.4368 21.3117C20.2846 21.354 20.1391 21.3751 20.0002 21.3751C19.8613 21.3751 19.7157 21.354 19.5635 21.3117C19.4102 21.2706 19.2641 21.2084 19.1252 21.1251L6.66683 13.3334V30.0001H33.3335V13.3334ZM20.0002 18.3334L33.3335 10.0001H6.66683L20.0002 18.3334ZM6.66683 13.3334V13.7501V11.2917V11.3334V10.0001V11.3334V11.3117V13.7501V13.3334V30.0001V13.3334Z" fill="white"/>
</svg>
