<svg width="24" height="24" viewBox="0 0 24 24" fill="none" xmlns="http://www.w3.org/2000/svg">
<path d="M20.2451 21.75H3.74754C3.09687 21.75 2.61317 22.2539 2.61317 22.8328C2.61317 23.4117 3.09687 24 3.74754 24H20.2033C20.854 24 21.3377 23.4961 21.3377 22.9172C21.3377 22.3383 20.8982 21.75 20.2451 21.75ZM23 10.125C23 9.57094 22.8142 9.02297 22.4559 8.57016C21.9501 7.89563 21.13 7.49766 20.2593 7.49766L13.1737 7.5V4.875H14.7009C15.3491 4.875 15.8824 4.36875 15.8824 3.75C15.8824 3.13125 15.3933 2.625 14.7451 2.625H13.2179V1.08281C13.1737 0.50625 12.6482 0 11.9558 0C11.2634 0 10.8165 0.50625 10.8165 1.08281V2.625H9.24509C8.59687 2.625 8.06799 3.13125 8.06799 3.75C8.06799 4.36875 8.59687 4.875 9.24509 4.875H10.7723V7.5H3.74754C2.21393 7.5 1 8.68594 1 10.1203C1 10.3875 1.04371 10.6594 1.13279 10.9219L4.36138 20.25H6.84129L3.37335 10.2375C3.36156 10.2 3.35616 10.1672 3.35616 10.1297C3.35616 9.95156 3.50103 9.75 3.74754 9.75H20.2426C20.541 9.75 20.6411 10.0075 20.6411 10.1303C20.6412 10.1601 20.6372 10.1899 20.6294 10.2188L17.1464 20.25H19.6322L22.8291 10.9125C22.9607 10.6547 23 10.3922 23 10.125Z" fill="white"/>
</svg>
