<svg width="24" height="24" viewBox="0 0 24 24" fill="none" xmlns="http://www.w3.org/2000/svg">
<path d="M3.6 6.41571V14.8707C3.6 16.2031 4.67625 17.2864 6 17.2864H21.6C22.9238 17.2864 24 16.2031 24 14.8707V6.41571C24 5.0833 22.9238 4 21.6 4H6C4.67625 4 3.6 5.0833 3.6 6.41571ZM6 12.455C7.32375 12.455 8.4 13.5383 8.4 14.8707H6V12.455ZM8.4 6.41571C8.4 7.74813 7.32375 8.83143 6 8.83143V6.41571H8.4ZM21.6 12.455V14.8707H19.2C19.2 13.5383 20.2763 12.455 21.6 12.455ZM19.2 6.41571H21.6V8.83143C20.2763 8.83143 19.2 7.74813 19.2 6.41571ZM16.8 10.6432C16.8 12.3116 15.4575 13.6629 13.8 13.6629C12.1425 13.6629 10.8 12.3116 10.8 10.6432C10.8 8.97486 12.1425 7.62357 13.8 7.62357C15.4575 7.62357 16.8 8.97486 16.8 10.6432ZM1.8 7.32161C1.8 6.81959 1.39875 6.41571 0.9 6.41571C0.40125 6.41571 0 6.81959 0 7.32161V16.3805C0 18.8831 2.01375 20.91 4.5 20.91H19.5C19.9988 20.91 20.4 20.5061 20.4 20.0041C20.4 19.5021 19.9988 19.0982 19.5 19.0982H4.5C3.0075 19.0982 1.8 17.8828 1.8 16.3805V7.32161Z" fill="white"/>
</svg>
