<svg width="24" height="24" viewBox="0 0 24 24" fill="none" xmlns="http://www.w3.org/2000/svg">
<path d="M20 20H4C3.4863 20.0154 2.98744 19.8266 2.6126 19.475C2.23776 19.1234 2.01749 18.6376 2 18.124V5.875C2.01749 5.36146 2.23779 4.87578 2.61266 4.52434C2.98753 4.1729 3.4864 3.98436 4 4H20C20.5136 3.98436 21.0125 4.1729 21.3873 4.52434C21.7622 4.87578 21.9825 5.36146 22 5.875V18.125C21.9823 18.6385 21.7619 19.124 21.3871 19.4754C21.0123 19.8267 20.5135 20.0154 20 20ZM4 6V17.989L20 18V6.011L4 6ZM13.43 16H6C6.07353 15.1721 6.46534 14.4049 7.093 13.86C7.79183 13.1667 8.73081 12.7692 9.715 12.75C10.699 12.77 11.638 13.167 12.337 13.86C12.9645 14.4051 13.3563 15.1721 13.43 16ZM18 15H15V13H18V15ZM9.715 12C9.44987 12.0092 9.18569 11.9638 8.93887 11.8665C8.69205 11.7693 8.46787 11.6223 8.28029 11.4347C8.0927 11.2471 7.94571 11.023 7.84847 10.7761C7.75122 10.5293 7.70579 10.2651 7.715 10C7.70594 9.73491 7.75147 9.47079 7.84877 9.22404C7.94607 8.97729 8.09306 8.75317 8.28062 8.56562C8.46817 8.37806 8.69229 8.23107 8.93904 8.13377C9.18579 8.03647 9.44991 7.99094 9.715 8C9.98009 7.99094 10.2442 8.03647 10.491 8.13377C10.7377 8.23107 10.9618 8.37806 11.1494 8.56562C11.3369 8.75317 11.4839 8.97729 11.5812 9.22404C11.6785 9.47079 11.7241 9.73491 11.715 10C11.7242 10.2651 11.6788 10.5293 11.5815 10.7761C11.4843 11.023 11.3373 11.2471 11.1497 11.4347C10.9621 11.6223 10.738 11.7693 10.4911 11.8665C10.2443 11.9638 9.98013 12.0092 9.715 12ZM18 11H14V9H18V11Z" fill="white"/>
</svg>
