<svg width="32" height="32" viewBox="0 0 32 32" fill="none" xmlns="http://www.w3.org/2000/svg">
<path d="M5.33331 27.9999C5.43959 28.0127 5.54703 28.0127 5.65331 27.9999L10.9866 26.6665C11.2232 26.6103 11.4399 26.4904 11.6133 26.3199L28 9.87987C28.4966 9.38024 28.7754 8.70437 28.7754 7.99987C28.7754 7.29538 28.4966 6.61951 28 6.11987L25.8933 3.99987C25.6456 3.75193 25.3515 3.55524 25.0278 3.42105C24.7041 3.28685 24.3571 3.21777 24.0066 3.21777C23.6562 3.21777 23.3092 3.28685 22.9855 3.42105C22.6617 3.55524 22.3676 3.75193 22.12 3.99987L5.73331 20.3865C5.56103 20.5607 5.43697 20.7766 5.37331 21.0132L4.03998 26.3465C3.99205 26.5191 3.97937 26.6995 4.00268 26.877C4.02599 27.0545 4.08482 27.2255 4.17566 27.3798C4.2665 27.5341 4.38748 27.6686 4.5314 27.7751C4.67531 27.8816 4.83921 27.9581 5.01331 27.9999C5.11959 28.0127 5.22703 28.0127 5.33331 27.9999ZM24 5.87987L26.12 7.99987L24 10.1199L21.8933 7.99987L24 5.87987ZM7.87998 22.0132L20 9.87987L22.12 11.9999L9.98664 24.1332L7.17331 24.8265L7.87998 22.0132Z" fill="white"/>
</svg>
