<svg width="24" height="24" viewBox="0 0 24 24" fill="none" xmlns="http://www.w3.org/2000/svg">
<path d="M17 11C16.7167 11 16.4793 10.904 16.288 10.712C16.096 10.5207 16 10.2833 16 10C16 9.71667 16.096 9.479 16.288 9.287C16.4793 9.09567 16.7167 9 17 9H21C21.2833 9 21.5207 9.09567 21.712 9.287C21.904 9.479 22 9.71667 22 10C22 10.2833 21.904 10.5207 21.712 10.712C21.5207 10.904 21.2833 11 21 11H17ZM9 12C7.9 12 6.95833 11.6083 6.175 10.825C5.39167 10.0417 5 9.1 5 8C5 6.9 5.39167 5.95833 6.175 5.175C6.95833 4.39167 7.9 4 9 4C10.1 4 11.0417 4.39167 11.825 5.175C12.6083 5.95833 13 6.9 13 8C13 9.1 12.6083 10.0417 11.825 10.825C11.0417 11.6083 10.1 12 9 12ZM2 20C1.71667 20 1.47933 19.904 1.288 19.712C1.096 19.5207 1 19.2833 1 19V17.2C1 16.6333 1.146 16.1123 1.438 15.637C1.72933 15.1623 2.11667 14.8 2.6 14.55C3.63333 14.0333 4.68333 13.6457 5.75 13.387C6.81667 13.129 7.9 13 9 13C10.1 13 11.1833 13.129 12.25 13.387C13.3167 13.6457 14.3667 14.0333 15.4 14.55C15.8833 14.8 16.2707 15.1623 16.562 15.637C16.854 16.1123 17 16.6333 17 17.2V19C17 19.2833 16.904 19.5207 16.712 19.712C16.5207 19.904 16.2833 20 16 20H2Z" fill="#FF3838"/>
</svg>
