<svg width="24" height="24" viewBox="0 0 24 24" fill="none" xmlns="http://www.w3.org/2000/svg">
<path d="M15 20C11.8 20 11 17.333 11 16H3V18C3 18.5304 3.21071 19.0391 3.58579 19.4142C3.96086 19.7893 4.46957 20 5 20H15ZM15 20C15.7956 20 16.5587 19.6839 17.1213 19.1213C17.6839 18.5587 18 17.7956 18 17V10M18 10H19C19.5304 10 20.0391 9.78929 20.4142 9.41421C20.7893 9.03914 21 8.53043 21 8V6C21 5.46957 20.7893 4.96086 20.4142 4.58579C20.0391 4.21071 19.5304 4 19 4H18M18 10V4M18 4H7C6.46957 4 5.96086 4.21071 5.58579 4.58579C5.21071 4.96086 5 5.46957 5 6V16" stroke="white" stroke-width="2" stroke-linecap="round" stroke-linejoin="round"/>
</svg>
