<svg width="24" height="24" viewBox="0 0 24 24" fill="none" xmlns="http://www.w3.org/2000/svg">
<path d="M8 18L10 16H12L13.36 14.64C14.7502 15.1243 16.2636 15.1224 17.6525 14.6346C19.0414 14.1467 20.2236 13.2018 21.0056 11.9546C21.7876 10.7073 22.123 9.23157 21.957 7.76885C21.791 6.30612 21.1334 4.94306 20.0918 3.90277C19.0502 2.86248 17.6863 2.20657 16.2234 2.04239C14.7604 1.87821 13.2851 2.21549 12.0388 2.99903C10.7926 3.78257 9.84917 4.96595 9.36307 6.35549C8.87696 7.74504 8.87694 9.25844 9.363 10.648L2 18V22H6L8 20V18Z" stroke="white" stroke-width="2" stroke-linecap="round" stroke-linejoin="round"/>
<path d="M17 8C17.5523 8 18 7.55228 18 7C18 6.44772 17.5523 6 17 6C16.4477 6 16 6.44772 16 7C16 7.55228 16.4477 8 17 8Z" stroke="white" stroke-width="2" stroke-linecap="round" stroke-linejoin="round"/>
</svg>
