<svg width="24" height="24" viewBox="0 0 24 24" fill="none" xmlns="http://www.w3.org/2000/svg">
<path d="M22.8 5H1.2C0.537375 5 0 5.53178 0 6.1875V18.0625C0 18.7182 0.537375 19.25 1.2 19.25H22.8C23.4626 19.25 24 18.7182 24 18.0625V6.1875C24 5.53178 23.4626 5 22.8 5ZM1.8 17.4688V15.0938C3.12563 15.0938 4.2 16.1569 4.2 17.4688H1.8ZM1.8 9.15625V6.78125H4.2C4.2 8.09307 3.12563 9.15625 1.8 9.15625ZM12 15.6875C10.3429 15.6875 9 14.0922 9 12.125C9 10.1575 10.3433 8.5625 12 8.5625C13.6568 8.5625 15 10.1575 15 12.125C15 14.0929 13.6564 15.6875 12 15.6875ZM22.2 17.4688H19.8C19.8 16.1569 20.8744 15.0938 22.2 15.0938V17.4688ZM22.2 9.15625C20.8744 9.15625 19.8 8.09307 19.8 6.78125H22.2V9.15625Z" fill="white"/>
</svg>
