<svg width="24" height="24" viewBox="0 0 24 24" fill="none" xmlns="http://www.w3.org/2000/svg">
<path d="M24 7.2L22.8 6L21 7.8L19.2 6L18 7.2L19.8 9L18 10.8L19.2 12L21 10.2L22.8 12L24 10.8L22.2 9L24 7.2Z" fill="white"/>
<path d="M9.00005 21.6C11.3196 21.6 13.2 19.7195 13.2 17.4C13.2 15.0804 11.3196 13.2 9.00005 13.2C6.68045 13.2 4.80005 15.0804 4.80005 17.4C4.80005 19.7195 6.68045 21.6 9.00005 21.6Z" fill="white"/>
<path d="M8.4 5.99995C9.72548 5.99995 10.8 4.92543 10.8 3.59995C10.8 2.27447 9.72548 1.19995 8.4 1.19995C7.07452 1.19995 6 2.27447 6 3.59995C6 4.92543 7.07452 5.99995 8.4 5.99995Z" fill="white"/>
<path d="M15.5999 9.59995C16.2626 9.59995 16.7999 9.06269 16.7999 8.39995C16.7999 7.73721 16.2626 7.19995 15.5999 7.19995C14.9372 7.19995 14.3999 7.73721 14.3999 8.39995C14.3999 9.06269 14.9372 9.59995 15.5999 9.59995Z" fill="white"/>
<path d="M12 8.4C12.6628 8.4 13.2 7.86274 13.2 7.2C13.2 6.53726 12.6628 6 12 6C11.3373 6 10.8 6.53726 10.8 7.2C10.8 7.86274 11.3373 8.4 12 8.4Z" fill="white"/>
<path d="M3.5999 4.80002C4.26264 4.80002 4.7999 4.26277 4.7999 3.60002C4.7999 2.93728 4.26264 2.40002 3.5999 2.40002C2.93716 2.40002 2.3999 2.93728 2.3999 3.60002C2.3999 4.26277 2.93716 4.80002 3.5999 4.80002Z" fill="white"/>
<path d="M1.2 8.4C1.86274 8.4 2.4 7.86274 2.4 7.2C2.4 6.53726 1.86274 6 1.2 6C0.537258 6 0 6.53726 0 7.2C0 7.86274 0.537258 8.4 1.2 8.4Z" fill="white"/>
<path d="M1.2 12C1.86274 12 2.4 11.4627 2.4 10.8C2.4 10.1372 1.86274 9.59998 1.2 9.59998C0.537258 9.59998 0 10.1372 0 10.8C0 11.4627 0.537258 12 1.2 12Z" fill="white"/>
<path d="M3.5999 15.6C4.26264 15.6 4.7999 15.0627 4.7999 14.4C4.7999 13.7372 4.26264 13.2 3.5999 13.2C2.93716 13.2 2.3999 13.7372 2.3999 14.4C2.3999 15.0627 2.93716 15.6 3.5999 15.6Z" fill="white"/>
</svg>
