<svg width="32" height="32" viewBox="0 0 32 32" fill="none" xmlns="http://www.w3.org/2000/svg">
<path d="M22.6667 29.3332H9.33333C8.62609 29.3332 7.94781 29.0522 7.44772 28.5521C6.94762 28.052 6.66667 27.3737 6.66667 26.6665V9.33317H4V6.6665H9.33333V5.33317C9.33333 4.62593 9.61428 3.94765 10.1144 3.44755C10.6145 2.94746 11.2928 2.6665 12 2.6665H20C20.7072 2.6665 21.3855 2.94746 21.8856 3.44755C22.3857 3.94765 22.6667 4.62593 22.6667 5.33317V6.6665H28V9.33317H25.3333V26.6665C25.3333 27.3737 25.0524 28.052 24.5523 28.5521C24.0522 29.0522 23.3739 29.3332 22.6667 29.3332ZM9.33333 9.33317V26.6665H22.6667V9.33317H9.33333ZM12 5.33317V6.6665H20V5.33317H12ZM20 23.9998H17.3333V11.9998H20V23.9998ZM14.6667 23.9998H12V11.9998H14.6667V23.9998Z" fill="white"/>
</svg>
