<svg
    width="24"
    height="24"
    viewBox="0 0 24 24"
    fill="none"
    xmlns="http://www.w3.org/2000/svg"
>
    <mask
        id="mask0_30_13"
        style="mask-type: alpha"
        maskUnits="userSpaceOnUse"
        x="0"
        y="0"
        width="24"
        height="24"
    >
        <path
            d="M9.51788 22C9.02788 20.4025 8.28888 19.211 7.30038 18.4265C5.81788 17.25 3.46238 17.9815 2.59238 16.7675C1.72238 15.5535 3.20188 13.3215 3.72088 12.0045C4.24038 10.6875 1.73088 10.222 2.02388 9.848C2.21888 9.5985 3.48738 8.8795 5.82838 7.69C6.49338 3.897 8.94988 2 13.1989 2C19.5719 2 21.9999 7.403 21.9999 10.84C21.9999 14.276 19.0599 17.978 14.8719 18.7765C14.4974 19.3215 15.0374 20.3965 16.4919 22"
            stroke="white"
            stroke-width="3"
            stroke-linecap="round"
            stroke-linejoin="round"
        />
        <path
            fill-rule="evenodd"
            clip-rule="evenodd"
            d="M9.74966 7.25C9.42266 8.517 9.51966 9.407 10.0412 9.9195C10.5622 10.4315 11.4502 10.767 12.7052 10.9245C12.4202 12.559 12.7677 13.3255 13.7467 13.2245C14.7257 13.124 15.3142 12.717 15.5117 12.0045C17.0417 12.4345 17.8712 12.0745 17.9997 10.9245C18.1922 9.1995 17.2622 7.824 16.8807 7.824C16.4997 7.824 15.5117 7.7775 15.5117 7.25C15.5117 6.7225 14.3577 6.425 13.3162 6.425C12.2747 6.425 12.9012 5.7225 11.4712 6C10.5177 6.185 9.94366 6.6015 9.74966 7.25Z"
            fill="white"
            stroke="white"
            stroke-width="2"
            stroke-linejoin="round"
        />
        <path
            d="M15.25 12.75C14.7415 13.0655 14.044 13.59 13.75 14C13.0155 15.025 12.42 15.649 12.29 16.304"
            stroke="white"
            stroke-width="2"
            stroke-linecap="round"
        />
    </mask>
    <g mask="url(#mask0_30_13)">
        <path
            d="M0 0H24V24H0V0Z"
            fill="white"
        />
    </g>
</svg>